<mxfile host="app.diagrams.net" modified="2024-04-03T01:58:51.234Z" agent="Mozilla/5.0 (Windows NT 10.0; Win64; x64; rv:124.0) Gecko/20100101 Firefox/124.0" etag="39DUO6qFc-fkdWafIUj0" version="24.2.1" type="device">
  <diagram name="Page-1" id="_74VbDrCO5uUWF_fzWLE">
    <mxGraphModel dx="1272" dy="755" grid="1" gridSize="10" guides="1" tooltips="1" connect="1" arrows="1" fold="1" page="1" pageScale="1" pageWidth="1100" pageHeight="1700" math="0" shadow="0">
      <root>
        <mxCell id="0" />
        <mxCell id="1" parent="0" />
        <mxCell id="MUN4NMc7fjuXtkXC3YAJ-2" value="" style="rounded=0;whiteSpace=wrap;html=1;strokeWidth=1.5;" parent="1" vertex="1">
          <mxGeometry x="332" y="110" width="490" height="706" as="geometry" />
        </mxCell>
        <mxCell id="MUN4NMc7fjuXtkXC3YAJ-3" value="Library System" style="text;html=1;align=center;verticalAlign=middle;whiteSpace=wrap;rounded=0;fontStyle=1" parent="1" vertex="1">
          <mxGeometry x="518" y="70" width="95" height="30" as="geometry" />
        </mxCell>
        <mxCell id="6cP9yHIbKIEMphewEy1k-36" style="edgeStyle=orthogonalEdgeStyle;rounded=0;orthogonalLoop=1;jettySize=auto;html=1;strokeWidth=0.5;endArrow=none;endFill=0;" edge="1" parent="1" source="MUN4NMc7fjuXtkXC3YAJ-4">
          <mxGeometry relative="1" as="geometry">
            <mxPoint x="10" y="726" as="targetPoint" />
          </mxGeometry>
        </mxCell>
        <mxCell id="6cP9yHIbKIEMphewEy1k-75" style="edgeStyle=orthogonalEdgeStyle;rounded=0;orthogonalLoop=1;jettySize=auto;html=1;exitX=1;exitY=0.5;exitDx=0;exitDy=0;strokeWidth=0.5;endArrow=none;endFill=0;" edge="1" parent="1" source="MUN4NMc7fjuXtkXC3YAJ-4">
          <mxGeometry relative="1" as="geometry">
            <mxPoint x="740" y="460" as="targetPoint" />
            <Array as="points">
              <mxPoint x="741" y="517" />
              <mxPoint x="741" y="470" />
            </Array>
          </mxGeometry>
        </mxCell>
        <mxCell id="MUN4NMc7fjuXtkXC3YAJ-4" value="Item Search Catalogue" style="rounded=0;whiteSpace=wrap;html=1;" parent="1" vertex="1">
          <mxGeometry x="502.25" y="502" width="164.5" height="30" as="geometry" />
        </mxCell>
        <mxCell id="MUN4NMc7fjuXtkXC3YAJ-37" style="edgeStyle=orthogonalEdgeStyle;rounded=0;orthogonalLoop=1;jettySize=auto;html=1;endArrow=none;endFill=0;entryX=0.5;entryY=0;entryDx=0;entryDy=0;entryPerimeter=0;strokeWidth=0.75;" parent="1" source="MUN4NMc7fjuXtkXC3YAJ-5" target="MUN4NMc7fjuXtkXC3YAJ-25" edge="1">
          <mxGeometry relative="1" as="geometry">
            <mxPoint x="202" y="262" as="targetPoint" />
          </mxGeometry>
        </mxCell>
        <mxCell id="MUN4NMc7fjuXtkXC3YAJ-5" value="Login" style="rounded=0;whiteSpace=wrap;html=1;" parent="1" vertex="1">
          <mxGeometry x="501" y="120" width="162" height="30" as="geometry" />
        </mxCell>
        <mxCell id="MUN4NMc7fjuXtkXC3YAJ-6" value="&lt;b&gt;Borrow Books&lt;/b&gt;" style="rounded=0;whiteSpace=wrap;html=1;" parent="1" vertex="1">
          <mxGeometry x="499.75" y="174" width="162" height="30" as="geometry" />
        </mxCell>
        <mxCell id="6cP9yHIbKIEMphewEy1k-13" style="edgeStyle=orthogonalEdgeStyle;rounded=0;orthogonalLoop=1;jettySize=auto;html=1;exitX=0;exitY=0.5;exitDx=0;exitDy=0;strokeWidth=0.75;endArrow=none;endFill=0;" edge="1" parent="1" source="MUN4NMc7fjuXtkXC3YAJ-9">
          <mxGeometry relative="1" as="geometry">
            <mxPoint x="154" y="237.66666666666663" as="targetPoint" />
          </mxGeometry>
        </mxCell>
        <mxCell id="MUN4NMc7fjuXtkXC3YAJ-9" value="Renew&amp;nbsp; a loan" style="rounded=0;whiteSpace=wrap;html=1;" parent="1" vertex="1">
          <mxGeometry x="502.25" y="222" width="162" height="30" as="geometry" />
        </mxCell>
        <mxCell id="6cP9yHIbKIEMphewEy1k-25" style="edgeStyle=orthogonalEdgeStyle;rounded=0;orthogonalLoop=1;jettySize=auto;html=1;exitX=0;exitY=0.5;exitDx=0;exitDy=0;endArrow=none;endFill=0;strokeWidth=0.75;" edge="1" parent="1" source="MUN4NMc7fjuXtkXC3YAJ-10">
          <mxGeometry relative="1" as="geometry">
            <mxPoint x="82" y="598" as="targetPoint" />
          </mxGeometry>
        </mxCell>
        <mxCell id="6cP9yHIbKIEMphewEy1k-64" style="edgeStyle=orthogonalEdgeStyle;rounded=0;orthogonalLoop=1;jettySize=auto;html=1;exitX=1;exitY=0.5;exitDx=0;exitDy=0;strokeWidth=0.5;endArrow=none;endFill=0;" edge="1" parent="1" source="MUN4NMc7fjuXtkXC3YAJ-10">
          <mxGeometry relative="1" as="geometry">
            <mxPoint x="950" y="330" as="targetPoint" />
          </mxGeometry>
        </mxCell>
        <mxCell id="MUN4NMc7fjuXtkXC3YAJ-10" value="Ask a Librarian" style="rounded=0;whiteSpace=wrap;html=1;" parent="1" vertex="1">
          <mxGeometry x="502.25" y="366" width="162" height="30" as="geometry" />
        </mxCell>
        <mxCell id="6cP9yHIbKIEMphewEy1k-23" style="edgeStyle=orthogonalEdgeStyle;rounded=0;orthogonalLoop=1;jettySize=auto;html=1;exitX=0;exitY=0.5;exitDx=0;exitDy=0;strokeWidth=0.6;endArrow=none;endFill=0;entryX=0.75;entryY=0.1;entryDx=0;entryDy=0;entryPerimeter=0;" edge="1" parent="1" source="MUN4NMc7fjuXtkXC3YAJ-13" target="MUN4NMc7fjuXtkXC3YAJ-25">
          <mxGeometry relative="1" as="geometry">
            <mxPoint x="162" y="406" as="targetPoint" />
          </mxGeometry>
        </mxCell>
        <mxCell id="6cP9yHIbKIEMphewEy1k-63" style="edgeStyle=orthogonalEdgeStyle;rounded=0;orthogonalLoop=1;jettySize=auto;html=1;exitX=1;exitY=0.5;exitDx=0;exitDy=0;strokeWidth=0.5;endArrow=none;endFill=0;" edge="1" parent="1" source="MUN4NMc7fjuXtkXC3YAJ-13">
          <mxGeometry relative="1" as="geometry">
            <mxPoint x="950" y="270" as="targetPoint" />
          </mxGeometry>
        </mxCell>
        <mxCell id="MUN4NMc7fjuXtkXC3YAJ-13" value="&lt;b&gt;Pay Fine&lt;/b&gt;" style="rounded=0;whiteSpace=wrap;html=1;" parent="1" vertex="1">
          <mxGeometry x="502.25" y="320" width="162" height="30" as="geometry" />
        </mxCell>
        <mxCell id="6cP9yHIbKIEMphewEy1k-78" style="edgeStyle=orthogonalEdgeStyle;rounded=0;orthogonalLoop=1;jettySize=auto;html=1;exitX=1;exitY=0.5;exitDx=0;exitDy=0;strokeWidth=0.5;endArrow=none;endFill=0;" edge="1" parent="1" source="MUN4NMc7fjuXtkXC3YAJ-14">
          <mxGeometry relative="1" as="geometry">
            <mxPoint x="740" y="610" as="targetPoint" />
          </mxGeometry>
        </mxCell>
        <mxCell id="MUN4NMc7fjuXtkXC3YAJ-14" value="Add Annual Borrower&#39;s List" style="rounded=0;whiteSpace=wrap;html=1;" parent="1" vertex="1">
          <mxGeometry x="502.25" y="648" width="164.5" height="30" as="geometry" />
        </mxCell>
        <mxCell id="6cP9yHIbKIEMphewEy1k-42" style="edgeStyle=orthogonalEdgeStyle;rounded=0;orthogonalLoop=1;jettySize=auto;html=1;exitX=0;exitY=0.5;exitDx=0;exitDy=0;strokeWidth=0.5;endArrow=none;endFill=0;" edge="1" parent="1">
          <mxGeometry relative="1" as="geometry">
            <mxPoint x="272" y="792" as="targetPoint" />
            <mxPoint x="532.25" y="570" as="sourcePoint" />
          </mxGeometry>
        </mxCell>
        <mxCell id="6cP9yHIbKIEMphewEy1k-43" style="edgeStyle=orthogonalEdgeStyle;rounded=0;orthogonalLoop=1;jettySize=auto;html=1;exitX=1;exitY=0.5;exitDx=0;exitDy=0;strokeWidth=0.5;endArrow=none;endFill=0;" edge="1" parent="1" source="MUN4NMc7fjuXtkXC3YAJ-15">
          <mxGeometry relative="1" as="geometry">
            <mxPoint x="890" y="742" as="targetPoint" />
            <Array as="points">
              <mxPoint x="891" y="565" />
              <mxPoint x="891" y="742" />
            </Array>
          </mxGeometry>
        </mxCell>
        <mxCell id="6cP9yHIbKIEMphewEy1k-76" style="edgeStyle=orthogonalEdgeStyle;rounded=0;orthogonalLoop=1;jettySize=auto;html=1;exitX=1;exitY=0.5;exitDx=0;exitDy=0;strokeWidth=0.5;endArrow=none;endFill=0;" edge="1" parent="1" source="MUN4NMc7fjuXtkXC3YAJ-15">
          <mxGeometry relative="1" as="geometry">
            <mxPoint x="740" y="510" as="targetPoint" />
          </mxGeometry>
        </mxCell>
        <mxCell id="MUN4NMc7fjuXtkXC3YAJ-15" value="Create Borrower account" style="rounded=0;whiteSpace=wrap;html=1;" parent="1" vertex="1">
          <mxGeometry x="502.25" y="550" width="164.5" height="30" as="geometry" />
        </mxCell>
        <mxCell id="6cP9yHIbKIEMphewEy1k-80" style="edgeStyle=orthogonalEdgeStyle;rounded=0;orthogonalLoop=1;jettySize=auto;html=1;exitX=1;exitY=0.5;exitDx=0;exitDy=0;strokeWidth=0.5;endArrow=none;endFill=0;" edge="1" parent="1" source="MUN4NMc7fjuXtkXC3YAJ-18">
          <mxGeometry relative="1" as="geometry">
            <mxPoint x="740" y="710" as="targetPoint" />
          </mxGeometry>
        </mxCell>
        <mxCell id="MUN4NMc7fjuXtkXC3YAJ-18" value="Generate reports on Item Usage, Borrowing rates.etc." style="rounded=0;whiteSpace=wrap;html=1;" parent="1" vertex="1">
          <mxGeometry x="502.25" y="750" width="164.5" height="30" as="geometry" />
        </mxCell>
        <mxCell id="6cP9yHIbKIEMphewEy1k-77" style="edgeStyle=orthogonalEdgeStyle;rounded=0;orthogonalLoop=1;jettySize=auto;html=1;exitX=1;exitY=0.5;exitDx=0;exitDy=0;strokeWidth=0.5;endArrow=none;endFill=0;" edge="1" parent="1" source="MUN4NMc7fjuXtkXC3YAJ-19">
          <mxGeometry relative="1" as="geometry">
            <mxPoint x="740" y="560" as="targetPoint" />
          </mxGeometry>
        </mxCell>
        <mxCell id="MUN4NMc7fjuXtkXC3YAJ-19" value="Book a Room " style="rounded=0;whiteSpace=wrap;html=1;" parent="1" vertex="1">
          <mxGeometry x="502.25" y="596" width="164.5" height="30" as="geometry" />
        </mxCell>
        <mxCell id="6cP9yHIbKIEMphewEy1k-54" style="edgeStyle=orthogonalEdgeStyle;rounded=0;orthogonalLoop=1;jettySize=auto;html=1;exitX=0;exitY=0.25;exitDx=0;exitDy=0;entryX=0.75;entryY=1;entryDx=0;entryDy=0;strokeWidth=0.5;endArrow=none;endFill=0;" edge="1" parent="1" source="MUN4NMc7fjuXtkXC3YAJ-21" target="MUN4NMc7fjuXtkXC3YAJ-30">
          <mxGeometry relative="1" as="geometry" />
        </mxCell>
        <mxCell id="6cP9yHIbKIEMphewEy1k-79" style="edgeStyle=orthogonalEdgeStyle;rounded=0;orthogonalLoop=1;jettySize=auto;html=1;exitX=1;exitY=0.5;exitDx=0;exitDy=0;strokeWidth=0.5;endArrow=none;endFill=0;" edge="1" parent="1" source="MUN4NMc7fjuXtkXC3YAJ-21">
          <mxGeometry relative="1" as="geometry">
            <mxPoint x="740" y="660" as="targetPoint" />
          </mxGeometry>
        </mxCell>
        <mxCell id="MUN4NMc7fjuXtkXC3YAJ-21" value="Reserve /Restrict a Borrowing" style="rounded=0;whiteSpace=wrap;html=1;" parent="1" vertex="1">
          <mxGeometry x="502.25" y="698" width="164.5" height="30" as="geometry" />
        </mxCell>
        <mxCell id="6cP9yHIbKIEMphewEy1k-30" style="edgeStyle=orthogonalEdgeStyle;rounded=0;orthogonalLoop=1;jettySize=auto;html=1;exitX=1;exitY=1;exitDx=0;exitDy=0;exitPerimeter=0;entryX=0;entryY=0.5;entryDx=0;entryDy=0;strokeWidth=0.5;endArrow=none;endFill=0;" edge="1" parent="1" source="MUN4NMc7fjuXtkXC3YAJ-24" target="MUN4NMc7fjuXtkXC3YAJ-71">
          <mxGeometry relative="1" as="geometry">
            <Array as="points">
              <mxPoint x="64" y="788" />
              <mxPoint x="302" y="788" />
              <mxPoint x="302" y="467" />
            </Array>
          </mxGeometry>
        </mxCell>
        <mxCell id="6cP9yHIbKIEMphewEy1k-38" style="edgeStyle=orthogonalEdgeStyle;rounded=0;orthogonalLoop=1;jettySize=auto;html=1;exitX=0;exitY=0.3333333333333333;exitDx=0;exitDy=0;exitPerimeter=0;strokeWidth=0.5;endArrow=none;endFill=0;" edge="1" parent="1" source="MUN4NMc7fjuXtkXC3YAJ-24">
          <mxGeometry relative="1" as="geometry">
            <mxPoint x="10" y="710" as="targetPoint" />
          </mxGeometry>
        </mxCell>
        <mxCell id="6cP9yHIbKIEMphewEy1k-48" style="edgeStyle=orthogonalEdgeStyle;rounded=0;orthogonalLoop=1;jettySize=auto;html=1;exitX=1;exitY=0.3333333333333333;exitDx=0;exitDy=0;exitPerimeter=0;strokeWidth=0.5;endArrow=none;endFill=0;" edge="1" parent="1" source="MUN4NMc7fjuXtkXC3YAJ-24">
          <mxGeometry relative="1" as="geometry">
            <mxPoint x="172" y="612" as="targetPoint" />
          </mxGeometry>
        </mxCell>
        <mxCell id="MUN4NMc7fjuXtkXC3YAJ-24" value="Actor" style="shape=umlActor;verticalLabelPosition=bottom;verticalAlign=top;html=1;outlineConnect=0;strokeWidth=1.5;" parent="1" vertex="1">
          <mxGeometry x="34" y="708" width="30" height="60" as="geometry" />
        </mxCell>
        <mxCell id="6cP9yHIbKIEMphewEy1k-27" style="edgeStyle=orthogonalEdgeStyle;rounded=0;orthogonalLoop=1;jettySize=auto;html=1;exitX=0.75;exitY=0.1;exitDx=0;exitDy=0;exitPerimeter=0;endArrow=none;endFill=0;strokeWidth=0.75;" edge="1" parent="1" source="MUN4NMc7fjuXtkXC3YAJ-25">
          <mxGeometry relative="1" as="geometry">
            <mxPoint x="210" y="382" as="targetPoint" />
          </mxGeometry>
        </mxCell>
        <mxCell id="6cP9yHIbKIEMphewEy1k-34" style="edgeStyle=orthogonalEdgeStyle;rounded=0;orthogonalLoop=1;jettySize=auto;html=1;exitX=1;exitY=1;exitDx=0;exitDy=0;exitPerimeter=0;entryX=0;entryY=0.5;entryDx=0;entryDy=0;strokeWidth=0.5;endArrow=none;endFill=0;" edge="1" parent="1" source="MUN4NMc7fjuXtkXC3YAJ-25" target="MUN4NMc7fjuXtkXC3YAJ-4">
          <mxGeometry relative="1" as="geometry" />
        </mxCell>
        <mxCell id="MUN4NMc7fjuXtkXC3YAJ-25" value="Actor" style="shape=umlActor;verticalLabelPosition=bottom;verticalAlign=top;html=1;outlineConnect=0;strokeWidth=1.5;" parent="1" vertex="1">
          <mxGeometry x="141" y="423" width="30" height="60" as="geometry" />
        </mxCell>
        <mxCell id="6cP9yHIbKIEMphewEy1k-19" style="edgeStyle=orthogonalEdgeStyle;rounded=0;orthogonalLoop=1;jettySize=auto;html=1;exitX=0;exitY=0.3333333333333333;exitDx=0;exitDy=0;exitPerimeter=0;strokeWidth=0.75;endArrow=none;endFill=0;" edge="1" parent="1" source="MUN4NMc7fjuXtkXC3YAJ-26">
          <mxGeometry relative="1" as="geometry">
            <mxPoint x="50" y="595" as="targetPoint" />
          </mxGeometry>
        </mxCell>
        <mxCell id="6cP9yHIbKIEMphewEy1k-37" style="edgeStyle=orthogonalEdgeStyle;rounded=0;orthogonalLoop=1;jettySize=auto;html=1;exitX=0;exitY=0.3333333333333333;exitDx=0;exitDy=0;exitPerimeter=0;strokeWidth=0.5;endArrow=none;endFill=0;" edge="1" parent="1" source="MUN4NMc7fjuXtkXC3YAJ-26">
          <mxGeometry relative="1" as="geometry">
            <mxPoint x="10" y="595" as="targetPoint" />
          </mxGeometry>
        </mxCell>
        <mxCell id="6cP9yHIbKIEMphewEy1k-46" style="edgeStyle=orthogonalEdgeStyle;rounded=0;orthogonalLoop=1;jettySize=auto;html=1;exitX=1;exitY=0.3333333333333333;exitDx=0;exitDy=0;exitPerimeter=0;strokeWidth=0.5;endArrow=none;endFill=0;" edge="1" parent="1" source="MUN4NMc7fjuXtkXC3YAJ-26">
          <mxGeometry relative="1" as="geometry">
            <mxPoint x="172" y="595" as="targetPoint" />
          </mxGeometry>
        </mxCell>
        <mxCell id="MUN4NMc7fjuXtkXC3YAJ-26" value="Actor" style="shape=umlActor;verticalLabelPosition=bottom;verticalAlign=top;html=1;outlineConnect=0;strokeWidth=1.5;" parent="1" vertex="1">
          <mxGeometry x="106" y="575" width="30" height="60" as="geometry" />
        </mxCell>
        <mxCell id="6cP9yHIbKIEMphewEy1k-45" style="edgeStyle=orthogonalEdgeStyle;rounded=0;orthogonalLoop=1;jettySize=auto;html=1;exitX=0;exitY=1;exitDx=0;exitDy=0;entryX=0;entryY=0.5;entryDx=0;entryDy=0;strokeWidth=0.5;endArrow=none;endFill=0;" edge="1" parent="1" source="MUN4NMc7fjuXtkXC3YAJ-29" target="MUN4NMc7fjuXtkXC3YAJ-19">
          <mxGeometry relative="1" as="geometry" />
        </mxCell>
        <mxCell id="MUN4NMc7fjuXtkXC3YAJ-29" value="Student" style="text;html=1;align=center;verticalAlign=middle;whiteSpace=wrap;rounded=0;fontStyle=1" parent="1" vertex="1">
          <mxGeometry x="171" y="447" width="63" height="31" as="geometry" />
        </mxCell>
        <mxCell id="MUN4NMc7fjuXtkXC3YAJ-30" value="Staff" style="text;html=1;align=center;verticalAlign=middle;whiteSpace=wrap;rounded=0;fontStyle=1" parent="1" vertex="1">
          <mxGeometry x="46" y="605" width="60" height="30" as="geometry" />
        </mxCell>
        <mxCell id="MUN4NMc7fjuXtkXC3YAJ-31" value="Librarian" style="text;html=1;align=center;verticalAlign=middle;whiteSpace=wrap;rounded=0;strokeWidth=1.5;fontStyle=1" parent="1" vertex="1">
          <mxGeometry x="64" y="735" width="60" height="30" as="geometry" />
        </mxCell>
        <mxCell id="MUN4NMc7fjuXtkXC3YAJ-32" value="&amp;nbsp;ITS Officer" style="text;html=1;align=center;verticalAlign=middle;whiteSpace=wrap;rounded=0;fontStyle=1" parent="1" vertex="1">
          <mxGeometry x="932" y="457" width="60" height="30" as="geometry" />
        </mxCell>
        <mxCell id="6cP9yHIbKIEMphewEy1k-12" style="edgeStyle=orthogonalEdgeStyle;rounded=0;orthogonalLoop=1;jettySize=auto;html=1;exitX=0.5;exitY=0;exitDx=0;exitDy=0;exitPerimeter=0;entryX=1;entryY=0.5;entryDx=0;entryDy=0;strokeWidth=0.75;endArrow=none;endFill=0;" edge="1" parent="1" source="MUN4NMc7fjuXtkXC3YAJ-34" target="MUN4NMc7fjuXtkXC3YAJ-9">
          <mxGeometry relative="1" as="geometry" />
        </mxCell>
        <mxCell id="6cP9yHIbKIEMphewEy1k-50" style="edgeStyle=orthogonalEdgeStyle;rounded=0;orthogonalLoop=1;jettySize=auto;html=1;exitX=0;exitY=1;exitDx=0;exitDy=0;exitPerimeter=0;entryX=1;entryY=0.5;entryDx=0;entryDy=0;strokeWidth=0.5;endArrow=none;endFill=0;" edge="1" parent="1" source="MUN4NMc7fjuXtkXC3YAJ-34" target="MUN4NMc7fjuXtkXC3YAJ-19">
          <mxGeometry relative="1" as="geometry" />
        </mxCell>
        <mxCell id="6cP9yHIbKIEMphewEy1k-52" style="edgeStyle=orthogonalEdgeStyle;rounded=0;orthogonalLoop=1;jettySize=auto;html=1;exitX=1;exitY=1;exitDx=0;exitDy=0;exitPerimeter=0;entryX=1;entryY=0.5;entryDx=0;entryDy=0;strokeWidth=0.5;endArrow=none;endFill=0;" edge="1" parent="1" source="MUN4NMc7fjuXtkXC3YAJ-34" target="MUN4NMc7fjuXtkXC3YAJ-14">
          <mxGeometry relative="1" as="geometry" />
        </mxCell>
        <mxCell id="MUN4NMc7fjuXtkXC3YAJ-34" value="Actor" style="shape=umlActor;verticalLabelPosition=bottom;verticalAlign=top;html=1;outlineConnect=0;strokeWidth=1.5;" parent="1" vertex="1">
          <mxGeometry x="915" y="487" width="30" height="60" as="geometry" />
        </mxCell>
        <mxCell id="MUN4NMc7fjuXtkXC3YAJ-35" value="Head Librarian" style="text;html=1;align=center;verticalAlign=middle;whiteSpace=wrap;rounded=0;fontStyle=1" parent="1" vertex="1">
          <mxGeometry x="900" y="768" width="60" height="30" as="geometry" />
        </mxCell>
        <mxCell id="MUN4NMc7fjuXtkXC3YAJ-38" style="edgeStyle=orthogonalEdgeStyle;rounded=0;orthogonalLoop=1;jettySize=auto;html=1;exitX=0;exitY=0.5;exitDx=0;exitDy=0;entryX=0.5;entryY=0;entryDx=0;entryDy=0;entryPerimeter=0;strokeWidth=0.65;endArrow=none;endFill=0;" parent="1" source="MUN4NMc7fjuXtkXC3YAJ-6" target="MUN4NMc7fjuXtkXC3YAJ-25" edge="1">
          <mxGeometry relative="1" as="geometry" />
        </mxCell>
        <mxCell id="MUN4NMc7fjuXtkXC3YAJ-50" style="edgeStyle=orthogonalEdgeStyle;rounded=0;orthogonalLoop=1;jettySize=auto;html=1;exitX=1;exitY=0.5;exitDx=0;exitDy=0;entryX=0.5;entryY=0;entryDx=0;entryDy=0;entryPerimeter=0;strokeWidth=0.75;endArrow=none;endFill=0;" parent="1" source="MUN4NMc7fjuXtkXC3YAJ-5" target="MUN4NMc7fjuXtkXC3YAJ-34" edge="1">
          <mxGeometry relative="1" as="geometry" />
        </mxCell>
        <mxCell id="MUN4NMc7fjuXtkXC3YAJ-62" style="edgeStyle=orthogonalEdgeStyle;rounded=0;orthogonalLoop=1;jettySize=auto;html=1;exitX=0.5;exitY=0;exitDx=0;exitDy=0;exitPerimeter=0;strokeWidth=0.5;endArrow=none;endFill=0;" parent="1" source="MUN4NMc7fjuXtkXC3YAJ-33" edge="1">
          <mxGeometry relative="1" as="geometry">
            <mxPoint x="930" y="134" as="targetPoint" />
            <Array as="points">
              <mxPoint x="1001" y="450" />
              <mxPoint x="930" y="450" />
            </Array>
          </mxGeometry>
        </mxCell>
        <mxCell id="6cP9yHIbKIEMphewEy1k-31" style="edgeStyle=orthogonalEdgeStyle;rounded=0;orthogonalLoop=1;jettySize=auto;html=1;exitX=0;exitY=1;exitDx=0;exitDy=0;exitPerimeter=0;entryX=1;entryY=0.5;entryDx=0;entryDy=0;strokeWidth=0.75;endArrow=none;endFill=0;" edge="1" parent="1" source="MUN4NMc7fjuXtkXC3YAJ-33" target="MUN4NMc7fjuXtkXC3YAJ-71">
          <mxGeometry relative="1" as="geometry">
            <Array as="points">
              <mxPoint x="986" y="815" />
              <mxPoint x="866" y="815" />
              <mxPoint x="866" y="467" />
            </Array>
          </mxGeometry>
        </mxCell>
        <mxCell id="6cP9yHIbKIEMphewEy1k-41" style="edgeStyle=orthogonalEdgeStyle;rounded=0;orthogonalLoop=1;jettySize=auto;html=1;exitX=0.25;exitY=0.1;exitDx=0;exitDy=0;exitPerimeter=0;strokeWidth=0.5;endArrow=none;endFill=0;" edge="1" parent="1" source="MUN4NMc7fjuXtkXC3YAJ-33">
          <mxGeometry relative="1" as="geometry">
            <mxPoint x="866" y="522" as="targetPoint" />
            <Array as="points">
              <mxPoint x="866" y="741" />
              <mxPoint x="866" y="534" />
            </Array>
          </mxGeometry>
        </mxCell>
        <mxCell id="6cP9yHIbKIEMphewEy1k-49" style="edgeStyle=orthogonalEdgeStyle;rounded=0;orthogonalLoop=1;jettySize=auto;html=1;exitX=0.25;exitY=0.1;exitDx=0;exitDy=0;exitPerimeter=0;entryX=1;entryY=0.5;entryDx=0;entryDy=0;strokeWidth=0.5;endArrow=none;endFill=0;" edge="1" parent="1" source="MUN4NMc7fjuXtkXC3YAJ-33" target="MUN4NMc7fjuXtkXC3YAJ-19">
          <mxGeometry relative="1" as="geometry">
            <Array as="points">
              <mxPoint x="842" y="741" />
              <mxPoint x="842" y="611" />
            </Array>
          </mxGeometry>
        </mxCell>
        <mxCell id="MUN4NMc7fjuXtkXC3YAJ-33" value="Actor" style="shape=umlActor;verticalLabelPosition=bottom;verticalAlign=top;html=1;outlineConnect=0;strokeWidth=1.5;" parent="1" vertex="1">
          <mxGeometry x="986" y="735" width="30" height="60" as="geometry" />
        </mxCell>
        <mxCell id="6cP9yHIbKIEMphewEy1k-21" style="edgeStyle=orthogonalEdgeStyle;rounded=0;orthogonalLoop=1;jettySize=auto;html=1;exitX=0;exitY=0.5;exitDx=0;exitDy=0;strokeWidth=0.75;endArrow=none;endFill=0;entryX=0.75;entryY=0.1;entryDx=0;entryDy=0;entryPerimeter=0;" edge="1" parent="1" source="MUN4NMc7fjuXtkXC3YAJ-70" target="MUN4NMc7fjuXtkXC3YAJ-25">
          <mxGeometry relative="1" as="geometry">
            <mxPoint x="162" y="406" as="targetPoint" />
          </mxGeometry>
        </mxCell>
        <mxCell id="6cP9yHIbKIEMphewEy1k-62" style="edgeStyle=orthogonalEdgeStyle;rounded=0;orthogonalLoop=1;jettySize=auto;html=1;exitX=1;exitY=0.5;exitDx=0;exitDy=0;strokeWidth=0.5;endArrow=none;endFill=0;" edge="1" parent="1" source="MUN4NMc7fjuXtkXC3YAJ-70">
          <mxGeometry relative="1" as="geometry">
            <mxPoint x="950" y="190" as="targetPoint" />
          </mxGeometry>
        </mxCell>
        <mxCell id="MUN4NMc7fjuXtkXC3YAJ-70" value="View Overdue" style="rounded=0;whiteSpace=wrap;html=1;" parent="1" vertex="1">
          <mxGeometry x="499.75" y="278" width="164.5" height="26" as="geometry" />
        </mxCell>
        <mxCell id="6cP9yHIbKIEMphewEy1k-74" style="edgeStyle=orthogonalEdgeStyle;rounded=0;orthogonalLoop=1;jettySize=auto;html=1;exitX=1;exitY=0.5;exitDx=0;exitDy=0;entryX=0.5;entryY=0;entryDx=0;entryDy=0;entryPerimeter=0;strokeWidth=0.75;" edge="1" parent="1" source="MUN4NMc7fjuXtkXC3YAJ-71" target="6cP9yHIbKIEMphewEy1k-56">
          <mxGeometry relative="1" as="geometry">
            <mxPoint x="740" y="90" as="targetPoint" />
            <Array as="points">
              <mxPoint x="741" y="467" />
              <mxPoint x="741" y="90" />
              <mxPoint x="1040" y="90" />
            </Array>
          </mxGeometry>
        </mxCell>
        <mxCell id="MUN4NMc7fjuXtkXC3YAJ-71" value="Full Access Browse" style="rounded=0;whiteSpace=wrap;html=1;" parent="1" vertex="1">
          <mxGeometry x="501" y="454" width="164.5" height="26" as="geometry" />
        </mxCell>
        <mxCell id="6cP9yHIbKIEMphewEy1k-28" style="edgeStyle=orthogonalEdgeStyle;rounded=0;orthogonalLoop=1;jettySize=auto;html=1;exitX=0;exitY=0.5;exitDx=0;exitDy=0;strokeWidth=0.75;endArrow=none;endFill=0;" edge="1" parent="1" source="MUN4NMc7fjuXtkXC3YAJ-72">
          <mxGeometry relative="1" as="geometry">
            <mxPoint x="210" y="427" as="targetPoint" />
          </mxGeometry>
        </mxCell>
        <mxCell id="6cP9yHIbKIEMphewEy1k-65" style="edgeStyle=orthogonalEdgeStyle;rounded=0;orthogonalLoop=1;jettySize=auto;html=1;exitX=1;exitY=0.5;exitDx=0;exitDy=0;strokeWidth=0.5;endArrow=none;endFill=0;" edge="1" parent="1" source="MUN4NMc7fjuXtkXC3YAJ-72">
          <mxGeometry relative="1" as="geometry">
            <mxPoint x="950" y="380" as="targetPoint" />
            <Array as="points">
              <mxPoint x="951" y="427" />
              <mxPoint x="951" y="380" />
            </Array>
          </mxGeometry>
        </mxCell>
        <mxCell id="MUN4NMc7fjuXtkXC3YAJ-72" value="Place Hold" style="rounded=0;whiteSpace=wrap;html=1;" parent="1" vertex="1">
          <mxGeometry x="499.75" y="414" width="164.5" height="26" as="geometry" />
        </mxCell>
        <mxCell id="6cP9yHIbKIEMphewEy1k-2" style="edgeStyle=orthogonalEdgeStyle;rounded=0;orthogonalLoop=1;jettySize=auto;html=1;exitX=1;exitY=0.5;exitDx=0;exitDy=0;entryX=0.5;entryY=0;entryDx=0;entryDy=0;entryPerimeter=0;strokeWidth=0.5;endArrow=none;endFill=0;" edge="1" parent="1" source="MUN4NMc7fjuXtkXC3YAJ-6" target="MUN4NMc7fjuXtkXC3YAJ-34">
          <mxGeometry relative="1" as="geometry" />
        </mxCell>
        <mxCell id="6cP9yHIbKIEMphewEy1k-17" style="edgeStyle=orthogonalEdgeStyle;rounded=0;orthogonalLoop=1;jettySize=auto;html=1;exitX=0;exitY=0.5;exitDx=0;exitDy=0;entryX=0.5;entryY=0;entryDx=0;entryDy=0;entryPerimeter=0;strokeWidth=0.5;" edge="1" parent="1" source="MUN4NMc7fjuXtkXC3YAJ-9" target="MUN4NMc7fjuXtkXC3YAJ-24">
          <mxGeometry relative="1" as="geometry" />
        </mxCell>
        <mxCell id="6cP9yHIbKIEMphewEy1k-20" style="edgeStyle=orthogonalEdgeStyle;rounded=0;orthogonalLoop=1;jettySize=auto;html=1;exitX=1;exitY=0.5;exitDx=0;exitDy=0;entryX=0.5;entryY=0.5;entryDx=0;entryDy=0;entryPerimeter=0;strokeWidth=0.75;endArrow=none;endFill=0;" edge="1" parent="1" source="MUN4NMc7fjuXtkXC3YAJ-18" target="MUN4NMc7fjuXtkXC3YAJ-33">
          <mxGeometry relative="1" as="geometry" />
        </mxCell>
        <mxCell id="6cP9yHIbKIEMphewEy1k-40" style="edgeStyle=orthogonalEdgeStyle;rounded=0;orthogonalLoop=1;jettySize=auto;html=1;entryX=0.5;entryY=0.5;entryDx=0;entryDy=0;entryPerimeter=0;strokeWidth=0.75;endArrow=none;endFill=0;" edge="1" parent="1" target="MUN4NMc7fjuXtkXC3YAJ-34">
          <mxGeometry relative="1" as="geometry">
            <mxPoint x="667" y="517" as="sourcePoint" />
          </mxGeometry>
        </mxCell>
        <mxCell id="6cP9yHIbKIEMphewEy1k-55" style="edgeStyle=orthogonalEdgeStyle;rounded=0;orthogonalLoop=1;jettySize=auto;html=1;exitX=1;exitY=1;exitDx=0;exitDy=0;entryX=0.75;entryY=1;entryDx=0;entryDy=0;strokeWidth=0.5;endArrow=none;endFill=0;" edge="1" parent="1" source="MUN4NMc7fjuXtkXC3YAJ-30" target="MUN4NMc7fjuXtkXC3YAJ-30">
          <mxGeometry relative="1" as="geometry" />
        </mxCell>
        <mxCell id="6cP9yHIbKIEMphewEy1k-61" style="edgeStyle=orthogonalEdgeStyle;rounded=0;orthogonalLoop=1;jettySize=auto;html=1;exitX=0;exitY=0.5;exitDx=0;exitDy=0;exitPerimeter=0;strokeWidth=0.75;endArrow=none;endFill=0;" edge="1" parent="1" source="6cP9yHIbKIEMphewEy1k-56">
          <mxGeometry relative="1" as="geometry">
            <mxPoint x="930" y="190" as="targetPoint" />
            <Array as="points">
              <mxPoint x="960" y="190" />
              <mxPoint x="960" y="190" />
            </Array>
          </mxGeometry>
        </mxCell>
        <mxCell id="6cP9yHIbKIEMphewEy1k-56" value="" style="shape=cylinder3;whiteSpace=wrap;html=1;boundedLbl=1;backgroundOutline=1;size=15;" vertex="1" parent="1">
          <mxGeometry x="1010" y="150" width="60" height="80" as="geometry" />
        </mxCell>
        <mxCell id="6cP9yHIbKIEMphewEy1k-57" style="edgeStyle=orthogonalEdgeStyle;rounded=0;orthogonalLoop=1;jettySize=auto;html=1;exitX=0.5;exitY=1;exitDx=0;exitDy=0;exitPerimeter=0;" edge="1" parent="1" source="6cP9yHIbKIEMphewEy1k-56" target="6cP9yHIbKIEMphewEy1k-56">
          <mxGeometry relative="1" as="geometry" />
        </mxCell>
        <mxCell id="6cP9yHIbKIEMphewEy1k-58" value="Backend Database " style="text;html=1;align=center;verticalAlign=middle;whiteSpace=wrap;rounded=0;" vertex="1" parent="1">
          <mxGeometry x="1010" y="240" width="60" height="30" as="geometry" />
        </mxCell>
      </root>
    </mxGraphModel>
  </diagram>
</mxfile>
